<svg width="33" height="33" viewBox="0 0 33 33" fill="none" xmlns="http://www.w3.org/2000/svg">
<path d="M26.6914 28.0266C26.6914 26.1641 26.6914 25.2328 26.4615 24.4751C25.944 22.7689 24.6088 21.4338 22.9027 20.9162C22.1449 20.6863 21.2137 20.6863 19.3511 20.6863H12.6782C10.8157 20.6863 9.8844 20.6863 9.12662 20.9162C7.42047 21.4338 6.08532 22.7689 5.56776 24.4751C5.33789 25.2328 5.33789 26.1641 5.33789 28.0266M22.0203 10.0096C22.0203 13.3264 19.3315 16.0153 16.0147 16.0153C12.6978 16.0153 10.009 13.3264 10.009 10.0096C10.009 6.69274 12.6978 4.00391 16.0147 4.00391C19.3315 4.00391 22.0203 6.69274 22.0203 10.0096Z" stroke="white" stroke-width="2" stroke-linecap="round" stroke-linejoin="round"/>
</svg>
