<svg width="21" height="23" viewBox="0 0 21 23" fill="none" xmlns="http://www.w3.org/2000/svg">
<path d="M19.75 9.33333H1M14.5417 1V5.16667M6.20833 1V5.16667M8.8125 13.5L10.375 12.4583V17.6667M9.07292 17.6667H11.6771M6 21.8333H14.75C16.5002 21.8333 17.3752 21.8333 18.0437 21.4927C18.6317 21.1931 19.1098 20.7151 19.4094 20.1271C19.75 19.4586 19.75 18.5835 19.75 16.8333V8.08333C19.75 6.33317 19.75 5.45809 19.4094 4.78961C19.1098 4.20161 18.6317 3.72354 18.0437 3.42394C17.3752 3.08333 16.5002 3.08333 14.75 3.08333H6C4.24984 3.08333 3.37475 3.08333 2.70628 3.42394C2.11827 3.72354 1.64021 4.20161 1.3406 4.78961C1 5.45809 1 6.33317 1 8.08333V16.8333C1 18.5835 1 19.4586 1.3406 20.1271C1.64021 20.7151 2.11827 21.1931 2.70628 21.4927C3.37475 21.8333 4.24984 21.8333 6 21.8333Z" stroke="#5F5F5F" stroke-width="2" stroke-linecap="round" stroke-linejoin="round"/>
</svg>
