<svg width="21" height="22" viewBox="0 0 21 22" fill="none" xmlns="http://www.w3.org/2000/svg">
<path d="M5.16667 6.72917H10.375M5.16667 10.375H13.5M5.16667 16.625V19.0578C5.16667 19.6129 5.16667 19.8904 5.28045 20.0329C5.3794 20.1569 5.52945 20.229 5.68806 20.2288C5.87044 20.2286 6.08716 20.0553 6.52058 19.7085L9.00543 17.7207C9.51304 17.3146 9.76684 17.1115 10.0495 16.9671C10.3002 16.839 10.5671 16.7454 10.8429 16.6888C11.1538 16.625 11.4788 16.625 12.1289 16.625H14.75C16.5002 16.625 17.3752 16.625 18.0437 16.2844C18.6317 15.9848 19.1098 15.5067 19.4094 14.9187C19.75 14.2502 19.75 13.3752 19.75 11.625V6C19.75 4.24984 19.75 3.37475 19.4094 2.70628C19.1098 2.11827 18.6317 1.64021 18.0437 1.3406C17.3752 1 16.5002 1 14.75 1H6C4.24984 1 3.37475 1 2.70628 1.3406C2.11827 1.64021 1.64021 2.11827 1.3406 2.70628C1 3.37475 1 4.24984 1 6V12.4583C1 13.4271 1 13.9114 1.10648 14.3088C1.39544 15.3872 2.23778 16.2296 3.31619 16.5185C3.71359 16.625 4.19795 16.625 5.16667 16.625Z" stroke="#5F5F5F" stroke-width="2" stroke-linecap="round" stroke-linejoin="round"/>
</svg>
