<svg width="21" height="21" viewBox="0 0 21 21" fill="none" xmlns="http://www.w3.org/2000/svg">
<path d="M16.1042 9.33333H10.8958M16.1042 13.5H10.8958M16.1042 5.16667H10.8958M7.25 1L7.25 19.75M6 1H14.75C16.5002 1 17.3752 1 18.0437 1.3406C18.6317 1.64021 19.1098 2.11827 19.4094 2.70628C19.75 3.37475 19.75 4.24984 19.75 6V14.75C19.75 16.5002 19.75 17.3752 19.4094 18.0437C19.1098 18.6317 18.6317 19.1098 18.0437 19.4094C17.3752 19.75 16.5002 19.75 14.75 19.75H6C4.24984 19.75 3.37475 19.75 2.70628 19.4094C2.11827 19.1098 1.64021 18.6317 1.3406 18.0437C1 17.3752 1 16.5002 1 14.75V6C1 4.24984 1 3.37475 1.3406 2.70628C1.64021 2.11827 2.11827 1.64021 2.70628 1.3406C3.37475 1 4.24984 1 6 1Z" stroke="#5F5F5F" stroke-width="2" stroke-linecap="round" stroke-linejoin="round"/>
</svg>
