<svg width="38" height="38" viewBox="0 0 38 38" fill="none" xmlns="http://www.w3.org/2000/svg">
<path d="M26.375 28.25L35.75 18.875M35.75 18.875L26.375 9.5M35.75 18.875H13.25M18.875 28.25C18.875 29.9937 18.875 30.8655 18.6833 31.5809C18.1632 33.522 16.647 35.0382 14.7059 35.5583C13.9905 35.75 13.1187 35.75 11.375 35.75H10.4375C7.81658 35.75 6.50612 35.75 5.47241 35.3218C4.09412 34.7509 2.99908 33.6559 2.42818 32.2776C2 31.2439 2 29.9334 2 27.3125V10.4375C2 7.81658 2 6.50612 2.42818 5.47241C2.99908 4.09412 4.09412 2.99908 5.47241 2.42818C6.50612 2 7.81658 2 10.4375 2H11.375C13.1187 2 13.9905 2 14.7059 2.19167C16.647 2.71179 18.1632 4.228 18.6833 6.16914C18.875 6.88445 18.875 7.7563 18.875 9.5" stroke="black" stroke-width="4" stroke-linecap="round" stroke-linejoin="round"/>
</svg>
