<svg width="21" height="17" viewBox="0 0 21 17" fill="none" xmlns="http://www.w3.org/2000/svg">
<path d="M19.75 8.29167L7.25 8.29167M19.75 2.04167L7.25 2.04167M19.75 14.5417L7.25 14.5417M3.08333 8.29167C3.08333 8.86696 2.61696 9.33333 2.04167 9.33333C1.46637 9.33333 1 8.86696 1 8.29167C1 7.71637 1.46637 7.25 2.04167 7.25C2.61696 7.25 3.08333 7.71637 3.08333 8.29167ZM3.08333 2.04167C3.08333 2.61696 2.61696 3.08333 2.04167 3.08333C1.46637 3.08333 1 2.61696 1 2.04167C1 1.46637 1.46637 1 2.04167 1C2.61696 1 3.08333 1.46637 3.08333 2.04167ZM3.08333 14.5417C3.08333 15.117 2.61696 15.5833 2.04167 15.5833C1.46637 15.5833 1 15.117 1 14.5417C1 13.9664 1.46637 13.5 2.04167 13.5C2.61696 13.5 3.08333 13.9664 3.08333 14.5417Z" stroke="#5F5F5F" stroke-width="2" stroke-linecap="round" stroke-linejoin="round"/>
</svg>
