<svg width="42" height="42" viewBox="0 0 42 42" fill="none" xmlns="http://www.w3.org/2000/svg">
<path d="M20.75 26.375C23.8566 26.375 26.375 23.8566 26.375 20.75C26.375 17.6434 23.8566 15.125 20.75 15.125C17.6434 15.125 15.125 17.6434 15.125 20.75C15.125 23.8566 17.6434 26.375 20.75 26.375Z" stroke="black" stroke-width="4" stroke-linecap="round" stroke-linejoin="round"/>
<path d="M33.3636 25.8636C33.1367 26.3778 33.0691 26.9481 33.1693 27.501C33.2696 28.054 33.5332 28.5642 33.9261 28.9659L34.0284 29.0682C34.3454 29.3848 34.5968 29.7608 34.7684 30.1746C34.9399 30.5885 35.0282 31.0321 35.0282 31.4801C35.0282 31.9281 34.9399 32.3717 34.7684 32.7856C34.5968 33.1995 34.3454 33.5754 34.0284 33.892C33.7118 34.209 33.3358 34.4605 32.922 34.632C32.5081 34.8036 32.0645 34.8919 31.6165 34.8919C31.1685 34.8919 30.7249 34.8036 30.311 34.632C29.8971 34.4605 29.5212 34.209 29.2045 33.892L29.1023 33.7898C28.7005 33.3968 28.1903 33.1332 27.6374 33.0329C27.0844 32.9327 26.5141 33.0004 26 33.2273C25.4958 33.4433 25.0659 33.8021 24.763 34.2594C24.4602 34.7167 24.2976 35.2526 24.2955 35.8011V36.0909C24.2955 36.9951 23.9363 37.8622 23.297 38.5015C22.6576 39.1408 21.7905 39.5 20.8864 39.5C19.9822 39.5 19.1151 39.1408 18.4758 38.5015C17.8364 37.8622 17.4773 36.9951 17.4773 36.0909V35.9375C17.4641 35.3733 17.2815 34.8261 16.9531 34.3671C16.6248 33.9081 16.166 33.5584 15.6364 33.3636C15.1222 33.1367 14.5519 33.0691 13.999 33.1693C13.4461 33.2696 12.9358 33.5332 12.5341 33.9261L12.4318 34.0284C12.1152 34.3454 11.7392 34.5968 11.3254 34.7684C10.9115 34.9399 10.4679 35.0282 10.0199 35.0282C9.57188 35.0282 9.12827 34.9399 8.71441 34.7684C8.30055 34.5968 7.92457 34.3454 7.60795 34.0284C7.29099 33.7118 7.03954 33.3358 6.86798 32.922C6.69642 32.5081 6.60811 32.0645 6.60811 31.6165C6.60811 31.1685 6.69642 30.7249 6.86798 30.311C7.03954 29.8971 7.29099 29.5212 7.60795 29.2045L7.71023 29.1023C8.10319 28.7005 8.36679 28.1903 8.46705 27.6374C8.56731 27.0844 8.49963 26.5141 8.27273 26C8.05665 25.4958 7.69788 25.0659 7.24057 24.763C6.78325 24.4602 6.24736 24.2976 5.69886 24.2955H5.40909C4.50494 24.2955 3.63783 23.9363 2.9985 23.297C2.35917 22.6576 2 21.7905 2 20.8864C2 19.9822 2.35917 19.1151 2.9985 18.4758C3.63783 17.8364 4.50494 17.4773 5.40909 17.4773H5.5625C6.1267 17.4641 6.67387 17.2815 7.1329 16.9531C7.59192 16.6248 7.94156 16.166 8.13636 15.6364C8.36326 15.1222 8.43095 14.5519 8.33069 13.999C8.23043 13.4461 7.96682 12.9358 7.57386 12.5341L7.47159 12.4318C7.15463 12.1152 6.90317 11.7392 6.73161 11.3254C6.56005 10.9115 6.47175 10.4679 6.47175 10.0199C6.47175 9.57188 6.56005 9.12827 6.73161 8.71441C6.90317 8.30055 7.15463 7.92457 7.47159 7.60795C7.7882 7.29099 8.16419 7.03954 8.57804 6.86798C8.9919 6.69642 9.43552 6.60811 9.88352 6.60811C10.3315 6.60811 10.7751 6.69642 11.189 6.86798C11.6029 7.03954 11.9788 7.29099 12.2955 7.60795L12.3977 7.71023C12.7995 8.10319 13.3097 8.36679 13.8626 8.46705C14.4156 8.56731 14.9859 8.49963 15.5 8.27273H15.6364C16.1405 8.05665 16.5705 7.69788 16.8733 7.24057C17.1762 6.78325 17.3387 6.24736 17.3409 5.69886V5.40909C17.3409 4.50494 17.7001 3.63783 18.3394 2.9985C18.9787 2.35917 19.8459 2 20.75 2C21.6541 2 22.5213 2.35917 23.1606 2.9985C23.7999 3.63783 24.1591 4.50494 24.1591 5.40909V5.5625C24.1613 6.111 24.3238 6.64689 24.6267 7.1042C24.9295 7.56152 25.3595 7.92029 25.8636 8.13636C26.3778 8.36326 26.9481 8.43095 27.501 8.33069C28.054 8.23043 28.5642 7.96682 28.9659 7.57386L29.0682 7.47159C29.3848 7.15463 29.7608 6.90317 30.1746 6.73161C30.5885 6.56005 31.0321 6.47175 31.4801 6.47175C31.9281 6.47175 32.3717 6.56005 32.7856 6.73161C33.1995 6.90317 33.5754 7.15463 33.892 7.47159C34.209 7.7882 34.4605 8.16419 34.632 8.57804C34.8036 8.9919 34.8919 9.43552 34.8919 9.88352C34.8919 10.3315 34.8036 10.7751 34.632 11.189C34.4605 11.6029 34.209 11.9788 33.892 12.2955L33.7898 12.3977C33.3968 12.7995 33.1332 13.3097 33.0329 13.8626C32.9327 14.4156 33.0004 14.9859 33.2273 15.5V15.6364C33.4433 16.1405 33.8021 16.5705 34.2594 16.8733C34.7167 17.1762 35.2526 17.3387 35.8011 17.3409H36.0909C36.9951 17.3409 37.8622 17.7001 38.5015 18.3394C39.1408 18.9787 39.5 19.8459 39.5 20.75C39.5 21.6541 39.1408 22.5213 38.5015 23.1606C37.8622 23.7999 36.9951 24.1591 36.0909 24.1591H35.9375C35.389 24.1613 34.8531 24.3238 34.3958 24.6267C33.9385 24.9295 33.5797 25.3595 33.3636 25.8636Z" stroke="black" stroke-width="4" stroke-linecap="round" stroke-linejoin="round"/>
</svg>
