<svg width="25" height="25" viewBox="0 0 25 25" fill="none" xmlns="http://www.w3.org/2000/svg">
<path d="M12.4987 15.6257C14.2246 15.6257 15.6237 14.2265 15.6237 12.5007C15.6237 10.7748 14.2246 9.37565 12.4987 9.37565C10.7728 9.37565 9.3737 10.7748 9.3737 12.5007C9.3737 14.2265 10.7728 15.6257 12.4987 15.6257Z" stroke="#5F5F5F" stroke-width="2" stroke-linecap="round" stroke-linejoin="round"/>
<path d="M19.5063 15.3416C19.3802 15.6272 19.3426 15.944 19.3983 16.2512C19.454 16.5584 19.6005 16.8419 19.8188 17.065L19.8756 17.1219C20.0517 17.2978 20.1914 17.5066 20.2867 17.7366C20.382 17.9665 20.4311 18.2129 20.4311 18.4618C20.4311 18.7107 20.382 18.9572 20.2867 19.1871C20.1914 19.417 20.0517 19.6259 19.8756 19.8018C19.6997 19.9779 19.4908 20.1176 19.2609 20.2129C19.031 20.3082 18.7845 20.3573 18.5356 20.3573C18.2867 20.3573 18.0403 20.3082 17.8104 20.2129C17.5804 20.1176 17.3716 19.9779 17.1957 19.8018L17.1388 19.745C16.9157 19.5267 16.6322 19.3802 16.325 19.3245C16.0178 19.2688 15.701 19.3064 15.4154 19.4325C15.1353 19.5525 14.8964 19.7518 14.7282 20.0059C14.5599 20.26 14.4696 20.5577 14.4684 20.8624V21.0234C14.4684 21.5257 14.2689 22.0074 13.9137 22.3626C13.5585 22.7178 13.0768 22.9173 12.5745 22.9173C12.0722 22.9173 11.5904 22.7178 11.2352 22.3626C10.8801 22.0074 10.6805 21.5257 10.6805 21.0234V20.9382C10.6732 20.6247 10.5717 20.3207 10.3893 20.0657C10.2069 19.8107 9.95205 19.6164 9.65779 19.5082C9.37217 19.3822 9.05533 19.3446 8.74814 19.4003C8.44095 19.456 8.15748 19.6024 7.9343 19.8207L7.87749 19.8775C7.70159 20.0536 7.49271 20.1933 7.26279 20.2886C7.03287 20.384 6.78642 20.433 6.53752 20.433C6.28863 20.433 6.04218 20.384 5.81226 20.2886C5.58234 20.1933 5.37346 20.0536 5.19756 19.8775C5.02147 19.7016 4.88177 19.4928 4.78646 19.2628C4.69115 19.0329 4.64209 18.7865 4.64209 18.5376C4.64209 18.2887 4.69115 18.0422 4.78646 17.8123C4.88177 17.5824 5.02147 17.3735 5.19756 17.1976L5.25438 17.1408C5.47269 16.9176 5.61914 16.6342 5.67484 16.327C5.73054 16.0198 5.69294 15.7029 5.56688 15.4173C5.44684 15.1372 5.24752 14.8984 4.99346 14.7301C4.73939 14.5619 4.44168 14.4716 4.13696 14.4703H3.97597C3.47367 14.4703 2.99194 14.2708 2.63675 13.9156C2.28157 13.5604 2.08203 13.0787 2.08203 12.5764C2.08203 12.0741 2.28157 11.5924 2.63675 11.2372C2.99194 10.882 3.47367 10.6825 3.97597 10.6825H4.0612C4.37464 10.6751 4.67863 10.5737 4.93364 10.3913C5.18865 10.2089 5.3829 9.954 5.49112 9.65974C5.61718 9.37412 5.65478 9.05729 5.59908 8.75009C5.54338 8.4429 5.39693 8.15944 5.17862 7.93626L5.1218 7.87944C4.94571 7.70354 4.80602 7.49466 4.71071 7.26474C4.61539 7.03482 4.56634 6.78837 4.56634 6.53948C4.56634 6.29058 4.61539 6.04413 4.71071 5.81421C4.80602 5.58429 4.94571 5.37541 5.1218 5.19951C5.2977 5.02342 5.50658 4.88373 5.7365 4.78842C5.96642 4.69311 6.21287 4.64405 6.46177 4.64405C6.71066 4.64405 6.95711 4.69311 7.18703 4.78842C7.41695 4.88373 7.62583 5.02342 7.80173 5.19951L7.85855 5.25633C8.08173 5.47464 8.36519 5.62109 8.67238 5.67679C8.97957 5.73249 9.29641 5.69489 9.58203 5.56883H9.65779C9.93787 5.44879 10.1767 5.24947 10.345 4.99541C10.5133 4.74135 10.6035 4.44363 10.6048 4.13891V3.97792C10.6048 3.47562 10.8043 2.99389 11.1595 2.63871C11.5147 2.28352 11.9964 2.08398 12.4987 2.08398C13.001 2.08398 13.4827 2.28352 13.8379 2.63871C14.1931 2.99389 14.3926 3.47562 14.3926 3.97792V4.06315C14.3939 4.36787 14.4841 4.66559 14.6524 4.91965C14.8207 5.17372 15.0595 5.37303 15.3396 5.49308C15.6252 5.61913 15.9421 5.65673 16.2493 5.60103C16.5564 5.54533 16.8399 5.39889 17.0631 5.18058L17.1199 5.12376C17.2958 4.94767 17.5047 4.80797 17.7346 4.71266C17.9645 4.61735 18.211 4.56829 18.4599 4.56829C18.7088 4.56829 18.9552 4.61735 19.1851 4.71266C19.4151 4.80797 19.6239 4.94767 19.7998 5.12376C19.9759 5.29965 20.1156 5.50853 20.2109 5.73845C20.3062 5.96837 20.3553 6.21483 20.3553 6.46372C20.3553 6.71261 20.3062 6.95906 20.2109 7.18898C20.1156 7.41891 19.9759 7.62779 19.7998 7.80368L19.743 7.8605C19.5247 8.08368 19.3783 8.36714 19.3226 8.67434C19.2669 8.98153 19.3045 9.29836 19.4305 9.58398V9.65974C19.5506 9.93983 19.7499 10.1787 20.0039 10.347C20.258 10.5152 20.5557 10.6055 20.8604 10.6067H21.0214C21.5237 10.6067 22.0055 10.8063 22.3606 11.1614C22.7158 11.5166 22.9154 11.9983 22.9154 12.5007C22.9154 13.003 22.7158 13.4847 22.3606 13.8399C22.0055 14.1951 21.5237 14.3946 21.0214 14.3946H20.9362C20.6315 14.3958 20.3338 14.4861 20.0797 14.6544C19.8256 14.8226 19.6263 15.0615 19.5063 15.3416Z" stroke="#5F5F5F" stroke-width="2" stroke-linecap="round" stroke-linejoin="round"/>
</svg>
