<svg width="29" height="29" viewBox="0 0 29 29" fill="none" xmlns="http://www.w3.org/2000/svg">
<path d="M16.1094 4.3877C17.524 2.97097 19.8187 2.97009 21.2344 4.38574L24.2451 7.39648C25.6482 8.79997 25.6633 11.0718 24.2783 12.4932L13.1201 23.9395C12.2108 24.8722 10.9643 25.3995 9.66211 25.3994L6.33691 25.3984C4.61954 25.3983 3.24724 23.9671 3.31934 22.25L3.46191 18.8555C3.51291 17.6455 4.01676 16.4984 4.87207 15.6416L16.1094 4.3877ZM24.7852 22.8916C25.4522 22.8916 25.9932 23.433 25.9932 24.1006C25.9931 24.7682 25.4522 25.3086 24.7852 25.3086H17.3887C16.7217 25.3084 16.1807 24.7681 16.1807 24.1006C16.1807 23.4331 16.7217 22.8918 17.3887 22.8916H24.7852ZM6.58008 17.3506C6.15275 17.7789 5.90146 18.3523 5.87598 18.957L5.7334 22.3516C5.71917 22.6948 5.99354 22.9814 6.33691 22.9814H9.66211C10.313 22.9814 10.937 22.7181 11.3916 22.252L19.0771 14.3652L14.3154 9.60352L6.58008 17.3506ZM19.5273 6.09473C19.0555 5.6229 18.2899 5.62363 17.8184 6.0957L16.0215 7.89355L20.7637 12.6348L22.5479 10.8047C23.0096 10.3309 23.0059 9.57331 22.5381 9.10547L19.5273 6.09473Z" fill="#888888"/>
</svg>
