<svg width="24" height="26" viewBox="0 0 24 26" fill="none" xmlns="http://www.w3.org/2000/svg">
<path d="M18.3333 10.3333V7.66667C18.3333 3.98477 15.3486 1 11.6667 1C7.98477 1 5 3.98477 5 7.66667V10.3333M11.6667 16.3333V19M7.4 25H15.9333C18.1735 25 19.2936 25 20.1493 24.564C20.9019 24.1805 21.5139 23.5686 21.8974 22.816C22.3333 21.9603 22.3333 20.8402 22.3333 18.6V16.7333C22.3333 14.4931 22.3333 13.373 21.8974 12.5174C21.5139 11.7647 20.9019 11.1528 20.1493 10.7693C19.2936 10.3333 18.1735 10.3333 15.9333 10.3333H7.4C5.15979 10.3333 4.03968 10.3333 3.18404 10.7693C2.43139 11.1528 1.81947 11.7647 1.43597 12.5174C1 13.373 1 14.4931 1 16.7333V18.6C1 20.8402 1 21.9603 1.43597 22.816C1.81947 23.5686 2.43139 24.1805 3.18404 24.564C4.03968 25 5.15979 25 7.4 25Z" stroke="white" stroke-width="2" stroke-linecap="round" stroke-linejoin="round"/>
</svg>
