<svg width="30" height="29" viewBox="0 0 30 29" fill="none" xmlns="http://www.w3.org/2000/svg">
<path d="M25.4993 16.3208L23.3998 24.7189C23.3408 24.9551 23.3112 25.0732 23.2763 25.1763C22.9351 26.1837 22.028 26.8919 20.968 26.9786C20.8595 26.9875 20.7378 26.9875 20.4943 26.9875C20.1894 26.9875 20.037 26.9875 19.9086 26.9751C18.6394 26.852 17.6349 25.8475 17.5118 24.5783C17.4993 24.4499 17.4993 24.2974 17.4993 23.9926V4.98751M6.16601 15.6542C3.58868 15.6542 1.49935 13.5648 1.49935 10.9875C1.49935 8.41018 3.58868 6.32085 6.16601 6.32085M17.166 4.98751H22.166C25.4797 4.98751 28.166 7.67381 28.166 10.9875C28.166 14.3012 25.4797 16.9875 22.166 16.9875H17.166C14.8108 16.9875 11.9297 18.25 9.70695 19.4617C8.41025 20.1686 7.76189 20.522 7.33725 20.47C6.94348 20.4218 6.64574 20.245 6.41492 19.9223C6.16601 19.5744 6.16601 18.8782 6.16601 17.4858V4.48923C6.16601 3.09684 6.16601 2.40065 6.41492 2.0527C6.64574 1.73005 6.94348 1.55325 7.33725 1.50502C7.76189 1.45301 8.41025 1.80644 9.70695 2.51332C11.9297 3.725 14.8108 4.98751 17.166 4.98751Z" stroke="#33A1E0" stroke-width="3" stroke-linecap="round" stroke-linejoin="round"/>
</svg>
